# xmcd
#
# Track frame offsets: 
#        150
#        15460
#        36223
#        55241
#        76903
#        90086
#        101708
#        122020
#        137931
#        157844
#        173740
#        191589
#        208243
#        225596
#        246509
#        262519
#        281495
#        298738
#        323039
#        343965
#
# Disc length: 4778 seconds
#
# Revision: 2
# Processed by: cddbd v1.5.2PL0 Copyright (c) Steve Scherf et al.
# Submitted via: ExactAudioCopy v0.99pb5
#
DISCID=1412a814
DTITLE=Various Artist - Beneath The Surface Vol 4 - A Bella Union Sampler
DYEAR=2009
DGENRE=Indie
TTITLE0=J. Tillman - First Born
TTITLE1=Beach House - Astronaut
TTITLE2=Sleeping Statues - Gardens Of The South
TTITLE3=My Latest Novel - Dragonhide
TTITLE4=Abe Vigoda - Don't Lie
TTITLE5=Wavves - Gun In The Sun
TTITLE6=The Low Anthem - Charlie Darwin
TTITLE7=Andrew Bird - Oh No
TTITLE8=Fleet Foxes - English House
TTITLE9=I Break Horses - All Of My Tears (Demo)
TTITLE10=Peter Broderick - Below It
TTITLE11=Ohbijou - Black Ice
TTITLE12=John Grant (Feat. Midlake) - I Wanna Go To Marz (Demo)
TTITLE13=The Acorn - Crooked Legs
TTITLE14=Vetiver - Everdyday
TTITLE15=Our Broken Garden - Le Sagitaire (Casper Of Efterklang Remake
TTITLE15=)
TTITLE16=Banjo Or Freakout - Left It Alone
TTITLE17=Chimes And Bells - Into Pieces Of Wood
TTITLE18=Paul Marshall - Keep Your Eyes On The Road (Demo)
TTITLE19=Jenny O - C'est La Vie (Demo)
EXTD=
EXTT0=
EXTT1=
EXTT2=
EXTT3=
EXTT4=
EXTT5=
EXTT6=
EXTT7=
EXTT8=
EXTT9=
EXTT10=
EXTT11=
EXTT12=
EXTT13=
EXTT14=
EXTT15=
EXTT16=
EXTT17=
EXTT18=
EXTT19=
PLAYORDER=
